<svg xmlns="http://www.w3.org/2000/svg" viewBox="0 0 630.612 532.5">
  <g id="undraw_right_direction_tge8" transform="translate(0)">
    <path id="Tracé_76" data-name="Tracé 76" d="M93.512,510.086l12.234,3.42,19.016-45.562L106.706,462.9Z" fill="#ffb8b8"/>
    <path id="Tracé_77" data-name="Tracé 77" d="M373.748,694.7h39.926v15.426H387.63a13.882,13.882,0,0,1-13.882-13.882V694.7Z" transform="matrix(-0.963, -0.269, 0.269, -0.963, 299.058, 1301.139)" fill="#2f2e41"/>
    <path id="Tracé_78" data-name="Tracé 78" d="M239.451,519.667h12.7l6.041-49H239.447Z" fill="#ffb8b8"/>
    <path id="Tracé_79" data-name="Tracé 79" d="M521.424,699.786H561.35v15.426H535.306a13.882,13.882,0,0,1-13.882-13.882v-1.544Z" transform="translate(798.143 1231.199) rotate(179.995)" fill="#2f2e41"/>
    <path id="Tracé_80" data-name="Tracé 80" d="M145.049,316.237l-29.24,71.631,119.4,26.823,1.523-40.076-54.216-57.747Z" fill="#b3b3b3"/>
    <circle id="Ellipse_18" data-name="Ellipse 18" cx="27.293" cy="27.293" r="27.293" transform="translate(159.697 169.844) rotate(-28.663)" fill="#ffb8b8"/>
    <path id="Tracé_81" data-name="Tracé 81" d="M500.934,496.023,446.89,473.9l-4.812-31.728a36.456,36.456,0,0,1,28.9-41.255l7.148-1.436a36.791,36.791,0,0,1,32.947,9.772,35.126,35.126,0,0,1,10.307,31.6,30.6,30.6,0,0,1-5.782,13.47c-16.978,22.2-14.8,40.658-14.774,40.842Z" transform="translate(-284.694 -183.75)" fill="#f4f0ec"/>
    <path id="Tracé_82" data-name="Tracé 82" d="M522.94,578.765l-27.085-43.074,8.531-78.354-11.784-58.6.626.016A26.7,26.7,0,0,1,519.265,424.8l11.464,57.424Z" transform="translate(-284.694 -183.75)" fill="#2f2e41"/>
    <path id="Tracé_83" data-name="Tracé 83" d="M523.558,694.154a4.946,4.946,0,0,1-4.844-3.97l-11.866-59A92.563,92.563,0,0,0,494.8,600.657L461.315,546.5a1.722,1.722,0,0,0-3.055.244L403.213,678.977a4.956,4.956,0,0,1-5.553,2.944l-14.705-3a4.924,4.924,0,0,1-3.887-5.672l12-70.7a182.476,182.476,0,0,1,12.419-41.889l40.627-93.893,59.955,19.69,3.956,41.982,27.7,67.078a45.983,45.983,0,0,1,3.388,14.548l5.118,77.525a4.968,4.968,0,0,1-4.531,5.254l-15.732,1.287Q523.761,694.154,523.558,694.154Z" transform="translate(-284.694 -183.75)" fill="#2f2e41"/>
    <path id="Tracé_84" data-name="Tracé 84" d="M414.185,597.975l-19.008-18.042L431.1,441.415a58.061,58.061,0,0,1,34.165-39.031l.705-.287-1.919,84.3Z" transform="translate(-284.694 -183.75)" fill="#2f2e41"/>
    <path id="Tracé_85" data-name="Tracé 85" d="M475.072,391.647c-6.743-5.836-8.793-16.724-4.662-24.75s14.01-12.347,22.458-9.823c7.956,2.378,17-5.554,16.031-14.059s-11.549-14.045-18.752-9.82a30.511,30.511,0,0,0-32.524,6.335c-8.463,8.291-11.674,21.844-7.874,33.241S464.153,392.8,475.072,391.647Z" transform="translate(-284.694 -183.75)" fill="#2f2e41"/>
    <path id="Tracé_86" data-name="Tracé 86" d="M451.2,613.464a4.658,4.658,0,0,1-1.033.266l-43.395,6.058a4.67,4.67,0,0,1-5.027-2.963l-37.353-97.2a4.69,4.69,0,0,1,3.356-6.26h0l40.809-9.107a3.729,3.729,0,0,0,.906-.331l39.692-20.752a4.645,4.645,0,0,1,.965-.376L493.8,471.159a4.681,4.681,0,0,1,5.586,2.849l32.569,84.748a4.667,4.667,0,0,1-.616,4.484l-11.264,15.126a4.684,4.684,0,0,1-2.079,1.576l-24.616,9.46a3.719,3.719,0,0,0-.512.243l-41.019,23.509A4.689,4.689,0,0,1,451.2,613.464Z" transform="translate(-284.694 -183.75)" fill="#fff"/>
    <path id="Tracé_87" data-name="Tracé 87" d="M471.387,484.115l-5.547,1.479-14.7,3.921-.026.006-20.125,10.523-7.468,3.906h0L412.3,509.815l-.308.069-11.653,2.6-5.632,1.259-22.969,5.125L407.8,612.7l23.67-3.3,5.8-.812,12.37-1.729.144-.018,39.749-22.782,24.185-9.294,11.042-14.828-31.389-81.676Z" transform="translate(-284.694 -183.75)" fill="#e6e6e6"/>
    <rect id="Rectangle_36" data-name="Rectangle 36" width="128.107" height="5.709" transform="translate(94.269 353.916) rotate(-21.022)" fill="#fff"/>
    <rect id="Rectangle_37" data-name="Rectangle 37" width="128.107" height="5.709" transform="translate(101.095 371.677) rotate(-21.022)" fill="#fff"/>
    <rect id="Rectangle_38" data-name="Rectangle 38" width="128.107" height="5.709" transform="translate(114.884 407.556) rotate(-21.022)" fill="#fff"/>
    <path id="Tracé_88" data-name="Tracé 88" d="M186.692,300.365l35.8,93.154-5.328,2.048-36.019-93.722Z" fill="#fff"/>
    <path id="Tracé_89" data-name="Tracé 89" d="M146.295,316.294l-7.351,20.454-2.549,7.1L130.449,360.4l-1.274,3.539-1.275,3.556-1.679,4.669L114.17,405.7l-3.133-8.153,9.826-27.349,2.223-6.192.326-.9,2.629-7.321,3.317-9.233,2.549-7.1,6.916-19.251h0Z" fill="#fff"/>
    <path id="Tracé_90" data-name="Tracé 90" d="M205.707,399.97l-.867.333-39.749,22.782-.144.018L127.3,326.134l.308-.069,11.217-5.864h0l7.469-3.906,20.125-10.523.026-.006Z" opacity="0.1"/>
    <path id="Tracé_91" data-name="Tracé 91" d="M451.376,613.93a5.174,5.174,0,0,1-1.143.295l-43.4,6.058A5.169,5.169,0,0,1,401.275,617l-37.353-97.2a5.19,5.19,0,0,1,3.714-6.928l40.809-9.107a3.242,3.242,0,0,0,.783-.287l39.692-20.752a5.159,5.159,0,0,1,1.067-.415l43.682-11.645a5.18,5.18,0,0,1,6.182,3.153l32.569,84.748a5.165,5.165,0,0,1-.682,4.962l-11.264,15.126a5.182,5.182,0,0,1-2.3,1.745l-24.616,9.46a3.222,3.222,0,0,0-.443.21L452.1,613.588a5.189,5.189,0,0,1-.72.342Zm-83.754-98.961a3.191,3.191,0,0,0-1.833,4.122l37.353,97.2a3.177,3.177,0,0,0,3.419,2.016l43.4-6.058a3.2,3.2,0,0,0,1.146-.392l41.019-23.509a5.208,5.208,0,0,1,.719-.342l24.616-9.46a3.188,3.188,0,0,0,1.415-1.072l11.264-15.125a3.174,3.174,0,0,0,.419-3.05l-32.569-84.748a3.184,3.184,0,0,0-3.8-1.938L450.5,484.253a3.3,3.3,0,0,0-.656.255l-39.693,20.753a5.276,5.276,0,0,1-1.274.466l-40.809,9.107A3.17,3.17,0,0,0,367.622,514.969Z" transform="translate(-284.694 -183.75)" fill="#e6e6e6"/>
    <path id="Tracé_92" data-name="Tracé 92" d="M115.646,328.733l36.931,96.1-5.8.811-36.76-95.651Z" fill="#fff"/>
    <circle id="Ellipse_19" data-name="Ellipse 19" cx="2.664" cy="2.664" r="2.664" transform="translate(123.604 362.195)" fill="#3f3d56"/>
    <circle id="Ellipse_20" data-name="Ellipse 20" cx="2.664" cy="2.664" r="2.664" transform="translate(218.059 365.034)" fill="#f4f0ec"/>
    <path id="Tracé_93" data-name="Tracé 93" d="M506.5,503.333c3.023,7.867-.615,33.939-1.895,42.308a1.521,1.521,0,0,1-2.467.948c-6.555-5.358-26.717-22.283-29.741-30.15a18.267,18.267,0,0,1,34.1-13.106Z" transform="translate(-284.694 -183.75)" fill="#f4f0ec"/>
    <circle id="Ellipse_21" data-name="Ellipse 21" cx="9.895" cy="9.895" r="9.895" transform="translate(194.855 316.24)" fill="#fff"/>
    <path id="Tracé_94" data-name="Tracé 94" d="M476.734,488.535a10.42,10.42,0,0,1,14.516-6.677l17.664-15.967,12.321,8.368-25.262,22.2a10.476,10.476,0,0,1-19.239-7.922Z" transform="translate(-284.694 -183.75)" fill="#ffb8b8"/>
    <path id="Tracé_95" data-name="Tracé 95" d="M505.2,493.747,491.35,474.956l31.566-20.2-22.625-32.284a13.082,13.082,0,0,1,19.53-17.172l28.329,25.846a23.73,23.73,0,0,1-3.33,37.6Z" transform="translate(-284.694 -183.75)" fill="#2f2e41"/>
    <path id="Tracé_96" data-name="Tracé 96" d="M396.715,543.051a10.42,10.42,0,0,0,1.447-15.912l9.153-21.982-12-8.82-12.49,31.224a10.476,10.476,0,0,0,13.892,15.49Z" transform="translate(-284.694 -183.75)" fill="#ffb8b8"/>
    <path id="Tracé_97" data-name="Tracé 97" d="M402.9,520.731l-21.646-5.041,16.131-46.515a76.263,76.263,0,0,1,12.133-22.206L435.833,413.5a14.716,14.716,0,1,1,23.2,18.109l-29.2,37.688Z" transform="translate(-284.694 -183.75)" fill="#2f2e41"/>
    <path id="Tracé_98" data-name="Tracé 98" d="M666.694,716.25h-381a1,1,0,0,1,0-2h381a1,1,0,0,1,0,2Z" transform="translate(-284.694 -183.75)" fill="#ccc"/>
    <path id="Tracé_99" data-name="Tracé 99" d="M814.482,715.75h-9V188.25a4.5,4.5,0,0,1,9,0Z" transform="translate(-284.694 -183.75)" fill="#e6e6e6"/>
    <path id="Tracé_100" data-name="Tracé 100" d="M879.694,716.25h-140a1,1,0,0,1,0-2h140a1,1,0,0,1,0,2Z" transform="translate(-284.694 -183.75)" fill="#ccc"/>
    <path id="Tracé_101" data-name="Tracé 101" d="M876.932,252.75H745.982a4.505,4.505,0,0,1-4.5-4.5v-38a4.505,4.505,0,0,1,4.5-4.5H876.941a4.51,4.51,0,0,1,2.193.571L913,225.22a4.5,4.5,0,0,1,.017,7.849l-33.874,19.1A4.512,4.512,0,0,1,876.932,252.75Z" transform="translate(-284.694 -183.75)" fill="#f4f0ec"/>
    <path id="Tracé_102" data-name="Tracé 102" d="M864.982,334.75H734.032a4.511,4.511,0,0,1-2.21-.58l-33.874-19.1a4.5,4.5,0,0,1,.017-7.849l33.865-18.9a4.509,4.509,0,0,1,2.193-.571h130.96a4.505,4.505,0,0,1,4.5,4.5v38a4.505,4.505,0,0,1-4.5,4.5Z" transform="translate(-284.694 -183.75)" fill="#e6e6e6"/>
    <path id="Tracé_103" data-name="Tracé 103" d="M865.482,415.25H734.532a4.511,4.511,0,0,1-2.21-.58l-33.875-19.1a4.5,4.5,0,0,1,.017-7.849l33.865-18.9a4.509,4.509,0,0,1,2.193-.571h130.96a4.505,4.505,0,0,1,4.5,4.5v38A4.505,4.505,0,0,1,865.482,415.25Z" transform="translate(-284.694 -183.75)" fill="#e6e6e6"/>
  </g>
</svg>
