<svg xmlns="http://www.w3.org/2000/svg" viewBox="0 0 608.003 560">
  <g id="Illu" transform="translate(-3.251 0)">
    <g id="Groupe_18" data-name="Groupe 18">
      <path id="Tracé_8" data-name="Tracé 8" d="M741.448,339.989,709.572,285.95a10.127,10.127,0,0,1,3.481-13.775h0a10.127,10.127,0,0,1,14.179,3.865l31.391,57.148,20.538,33.921a8.837,8.837,0,1,1-7.558,8.456Z" transform="translate(-544.937 -169.09)" fill="#ffb6b6"/>
      <path id="Tracé_9" data-name="Tracé 9" d="M764.285,299.891h0a2.986,2.986,0,0,1-2.3-2.8,3.874,3.874,0,0,0-.845-2.207,3.569,3.569,0,0,0-.32-.341,5.843,5.843,0,0,1-1.913-5.052c.41-3.068-.7-6.626-2.057-9.564-1.487-3.215-3.17-6.4-3.845-9.875-.972-5.016.5-10.961,6.687-12.448a11.761,11.761,0,0,1,7.823.951c5.095,2.456,8.207,7.343,11.139,12.047,0,0,7.006,7.29,11.891,10.833-1.276.494-1.119,2.528-.061,3.395s2.528.95,3.879,1.167c1.7.273,3.638,1.052,3.534,3.171a3.682,3.682,0,0,1-1.386,2.6,69.581,69.581,0,0,1-25.2,13.267c-2.049.585-4.346,1.052-6.23.056S762.466,301,764.285,299.891Z" transform="translate(-598.165 -169.195)" fill="#f4f0ec"/>
      <path id="Tracé_10" data-name="Tracé 10" d="M520.328,224.152l65-1,2-15-6-34h-51Z" transform="translate(-402.836 0.65)" fill="#ffb6b6"/>
      <path id="Tracé_11" data-name="Tracé 11" d="M483.778,538.978h11.038l5.253-42.573H483.778Z" transform="translate(-278.971 1.897)" fill="#ffb6b6"/>
      <path id="Tracé_12" data-name="Tracé 12" d="M714.871,727.625h7.915l1.413-7.473,3.619,7.473h20.994a4.719,4.719,0,0,0,2.682-8.6l-16.765-11.579v-7.555l-17.634,1.052Z" transform="translate(-515.889 -167.625)" fill="#2f2e41"/>
      <path id="Tracé_13" data-name="Tracé 13" d="M611.634,503.147l9.054,6.313,28.66-31.918-13.363-9.317Z" transform="translate(-556.209 1.897)" fill="#ffb6b6"/>
      <path id="Tracé_14" data-name="Tracé 14" d="M877.442,685.024l6.493,4.527,5.433-5.322-1.306,8.2,17.221,12.008a4.719,4.719,0,0,0,7.12-5.523l-7.13-19.087,4.321-6.2-15.067-9.223Z" transform="translate(-837.78 -167.625)" fill="#2f2e41"/>
      <path id="Tracé_22" data-name="Tracé 22" d="M702.534,340.74l.73-2.56H703.1a1.707,1.707,0,1,1,0-3.414,50.781,50.781,0,0,1,23.469,0,1.706,1.706,0,1,1,.02,3.412l.694,2.562c5.385,7.486,2.75,19.922,0,32.43H702.533C699.422,359.537,697.066,346.59,702.534,340.74Z" transform="translate(-477.159 -168.922)" fill="#ccc"/>
      <circle id="Ellipse_10" data-name="Ellipse 10" cx="6.827" cy="6.827" r="6.827" transform="translate(230.847 178.238)" fill="#fff"/>
      <path id="Tracé_26" data-name="Tracé 26" d="M766.193,380.312l67.88-4.574s15.728,36.332,15.476,41.134-6.742,3.356,0,10.579,6.745-2.777,6.745,7.223,27.271,232,15.271,234c-21,3-20-1-20-1L818.615,564.431s-59.5,86.982-78.047,82.243-15-11-15-11L765.312,555s5.925-.011,5.09-6.668,4.222-5.531,4.222-5.531,7.594-2.368,4.769-6.247,4.674-6.124,4.674-6.124l-21.889-83.787S746.589,410.45,766.193,380.312Z" transform="translate(-647.365 -167.625)" fill="#2f2e41"/>
      <path id="Tracé_27" data-name="Tracé 27" d="M793.17,241.721l23.363,1.183,7.8,13.14s22.224,1.63,22.224,19.63,15.169,10.167,8.085,33.083-8.7,27.334-2.392,30.625,15.208,2.583,7.258,7.937-10.951,7.354-8.951,9.354-37.071-13.735-59.535-3.868c0,0-6.285-4.757-4.875-8.945s2.178-2.568-.206-6.378-27.686-70.07-27.686-70.07,5.136-9.55,16.219-9.145S793.17,241.721,793.17,241.721Z" transform="translate(-668.429 -169.522)" fill="#f4f0ec"/>
      <path id="Tracé_28" data-name="Tracé 28" d="M833.828,464.255l41.309,22.418,31.719-58.448a23.5,23.5,0,1,0-41.309-22.418Zm40.505,19.706-37.794-20.51,30.765-56.69a21.5,21.5,0,0,1,37.794,20.51Z" transform="translate(-791.128 -168.608)" fill="#3f3d56"/>
      <path id="Tracé_29" data-name="Tracé 29" d="M835.553,505.975,896.4,539a7.841,7.841,0,0,0,9.2-1.238l41.091-39.443a7.867,7.867,0,0,0-1.7-12.59L853.734,436.2a7.867,7.867,0,0,0-11.48,5.44l-10.676,55.949a7.841,7.841,0,0,0,3.976,8.388Z" transform="translate(-828.184 -168.41)" fill="#f4f0ec"/>
      <rect id="Rectangle_12" data-name="Rectangle 12" width="13.876" height="0.671" transform="translate(77.144 303.447) rotate(-151.512)" fill="#3f3d56"/>
      <path id="Tracé_30" data-name="Tracé 30" d="M842.76,346.963l1.786-62.714a10.127,10.127,0,0,1,10.28-9.807h0a10.127,10.127,0,0,1,9.945,10.821l-3.853,65.088L860.245,390a8.837,8.837,0,1,1-10.9,3.134Z" transform="translate(-755.833 -169.054)" fill="#ffb6b6"/>
      <path id="Tracé_31" data-name="Tracé 31" d="M837.7,296.864h0a2.986,2.986,0,0,1-.457-3.591,3.875,3.875,0,0,0,.46-2.318,3.556,3.556,0,0,0-.089-.459,5.843,5.843,0,0,1,1.07-5.3c1.981-2.379,2.937-5.98,3.351-9.191.453-3.513.722-7.1,2-10.406,1.847-4.764,6.262-9.01,12.288-6.978a11.761,11.761,0,0,1,6.116,4.97c3,4.792,3.037,10.585,3.015,16.128l1.081-2.19a44.968,44.968,0,0,0,3.218,17.691c-1.343-.261-2.293,1.544-1.859,2.841s1.634,2.15,2.662,3.053c1.3,1.138,2.52,2.827,1.3,4.566a3.682,3.682,0,0,1-2.56,1.466,69.581,69.581,0,0,1-28.4-2.186c-2.046-.6-4.239-1.424-5.3-3.27S835.575,296.835,837.7,296.864Z" transform="translate(-755.12 -169.192)" fill="#f4f0ec"/>
      <path id="Tracé_32" data-name="Tracé 32" d="M788.969,210.116c1.34,4.96-.2,12.77-.78,17.4-.62,4.95,7.96,9.38,12.87,9.66a6.989,6.989,0,0,1,1.3-4.6,11.968,11.968,0,0,0,.96,4.61h40.97c5.16-9.71,9.55-22.98,4.81-36.7a14.04,14.04,0,0,0-9.7-12.15l-22.34-7.15c-8.81,0-19.62,1.25-24.49,7.81a24.575,24.575,0,0,0-3.6,21.12Z" transform="translate(-686.66 -169.522)" fill="#2f2e41"/>
      <circle id="Ellipse_14" data-name="Ellipse 14" cx="23" cy="23" r="23" transform="translate(116.612 20.664)" fill="#ffb6b6"/>
      <path id="Tracé_33" data-name="Tracé 33" d="M785.833,207.186v5h19.9a7.156,7.156,0,0,1,1.17-5.61,12.191,12.191,0,0,0,1.42,5.61c11.507,3.4,21.165,3.337,29.079,0a4.431,4.431,0,0,0,4.431-4.431h0c0-15.33-12.084-28.247-27.41-28.563a28,28,0,0,0-28.59,27.994Z" transform="translate(-675.22 -169.522)" fill="#2f2e41"/>
      <path id="Tracé_34" data-name="Tracé 34" d="M819.082,173.3c2.371-1.109,5.041-1.58,6.912-3.783l-.706,3.732a17.626,17.626,0,0,1,12.55-1.568,6.73,6.73,0,0,1,3.314,1.719,4.956,4.956,0,0,1,1.313,4.08,4.642,4.642,0,0,1-2.077,3.12,8.961,8.961,0,0,1-3.166,1.078l-13.886,2.823a10.591,10.591,0,0,1-5.32.17,5.22,5.22,0,0,1-3.514-4.516C814.239,176.973,816.711,174.414,819.082,173.3Z" transform="translate(-704.541 -169.522)" fill="#2f2e41"/>
    </g>
    <g id="Groupe_17" data-name="Groupe 17" transform="translate(-30.416)">
      <rect id="Rectangle_10" data-name="Rectangle 10" width="5" height="55" transform="translate(539.929 191.736)" fill="#f2f2f2"/>
      <path id="Tracé_7" data-name="Tracé 7" d="M73.438,559.992h197l-.22-22.888-.02-1.99-1.76-179.122h-194l-.25,51.746-.01,1.99Z" transform="translate(360.728)" fill="#e6e6e6"/>
      <rect id="Rectangle_11" data-name="Rectangle 11" width="215.498" height="23.768" transform="translate(426.172 335.384)" fill="#e6e6e6"/>
      <path id="Tracé_16" data-name="Tracé 16" d="M427.862,476.271l.73-2.56h-.164a1.707,1.707,0,0,1,0-3.414,50.781,50.781,0,0,1,23.469,0,1.706,1.706,0,1,1,.02,3.412l.694,2.562c5.385,7.486,2.75,19.922,0,32.43H427.862C424.751,495.068,422.4,482.121,427.862,476.271Z" transform="translate(71.948 -169.522)" fill="#e6e6e6"/>
      <circle id="Ellipse_4" data-name="Ellipse 4" cx="6.827" cy="6.827" r="6.827" transform="translate(505.284 313.15)" fill="#fff"/>
      <path id="Tracé_17" data-name="Tracé 17" d="M446.533,439.74l.73-2.56H447.1a1.707,1.707,0,1,1,0-3.414,50.78,50.78,0,0,1,23.469,0,1.706,1.706,0,0,1,.02,3.412l.694,2.562c5.385,7.486,2.75,19.922,0,32.43H446.533C443.422,458.537,441.066,445.59,446.533,439.74Z" transform="translate(34.609 -169.522)" fill="#e6e6e6"/>
      <circle id="Ellipse_5" data-name="Ellipse 5" cx="6.827" cy="6.827" r="6.827" transform="translate(486.616 276.619)" fill="#fff"/>
      <path id="Tracé_18" data-name="Tracé 18" d="M410.533,439.74l.73-2.56H411.1a1.707,1.707,0,1,1,0-3.414,50.78,50.78,0,0,1,23.469,0,1.706,1.706,0,1,1,.02,3.412l.694,2.562c5.385,7.486,2.75,19.922,0,32.43H410.533C407.422,458.537,405.066,445.59,410.533,439.74Z" transform="translate(106.603 -169.522)" fill="#e6e6e6"/>
      <circle id="Ellipse_6" data-name="Ellipse 6" cx="6.827" cy="6.827" r="6.827" transform="translate(522.61 276.619)" fill="#fff"/>
      <path id="Tracé_19" data-name="Tracé 19" d="M394.533,404.74l.73-2.56H395.1a1.707,1.707,0,0,1,0-3.414,50.78,50.78,0,0,1,23.469,0,1.706,1.706,0,0,1,.02,3.412l.694,2.562c5.385,7.486,2.75,19.922,0,32.43H394.533C391.422,423.537,389.066,410.59,394.533,404.74Z" transform="translate(138.6 -169.522)" fill="#e6e6e6"/>
      <circle id="Ellipse_7" data-name="Ellipse 7" cx="6.827" cy="6.827" r="6.827" transform="translate(538.607 241.619)" fill="#fff"/>
      <path id="Tracé_20" data-name="Tracé 20" d="M430.533,404.74l.73-2.56H431.1a1.707,1.707,0,1,1,0-3.414,50.779,50.779,0,0,1,23.469,0,1.706,1.706,0,1,1,.02,3.412l.694,2.562c5.385,7.486,2.75,19.922,0,32.43H430.533C427.422,423.537,425.066,410.59,430.533,404.74Z" transform="translate(66.606 -169.522)" fill="#e6e6e6"/>
      <circle id="Ellipse_8" data-name="Ellipse 8" cx="6.827" cy="6.827" r="6.827" transform="translate(502.613 241.619)" fill="#fff"/>
      <path id="Tracé_21" data-name="Tracé 21" d="M373.533,439.74l.73-2.56H374.1a1.707,1.707,0,1,1,0-3.414,50.78,50.78,0,0,1,23.469,0,1.706,1.706,0,1,1,.02,3.412l.694,2.562c5.385,7.486,2.75,19.922,0,32.43H373.533C370.422,458.537,368.066,445.59,373.533,439.74Z" transform="translate(180.596 -169.522)" fill="#e6e6e6"/>
      <circle id="Ellipse_9" data-name="Ellipse 9" cx="6.827" cy="6.827" r="6.827" transform="translate(559.603 276.619)" fill="#fff"/>
      <path id="Tracé_23" data-name="Tracé 23" d="M353.988,476.271l.73-2.56h-.164a1.707,1.707,0,1,1,0-3.414,50.781,50.781,0,0,1,23.469,0,1.706,1.706,0,1,1,.02,3.412l.694,2.562c5.385,7.486,2.75,19.922,0,32.43H353.988C350.877,495.068,348.521,482.121,353.988,476.271Z" transform="translate(219.663 -169.522)" fill="#e6e6e6"/>
      <circle id="Ellipse_11" data-name="Ellipse 11" cx="6.827" cy="6.827" r="6.827" transform="translate(579.125 313.15)" fill="#fff"/>
      <path id="Tracé_24" data-name="Tracé 24" d="M390.988,476.271l.73-2.56h-.164a1.707,1.707,0,1,1,0-3.414,50.781,50.781,0,0,1,23.469,0,1.706,1.706,0,1,1,.02,3.412l.694,2.562c5.385,7.486,2.75,19.922,0,32.43H390.988C387.877,495.068,385.521,482.121,390.988,476.271Z" transform="translate(145.689 -169.522)" fill="#e6e6e6"/>
      <circle id="Ellipse_12" data-name="Ellipse 12" cx="6.827" cy="6.827" r="6.827" transform="translate(542.151 313.15)" fill="#fff"/>
      <path id="Tracé_25" data-name="Tracé 25" d="M466.828,476.271l.73-2.56h-.164a1.707,1.707,0,1,1,0-3.414,50.781,50.781,0,0,1,23.469,0,1.706,1.706,0,1,1,.02,3.412l.694,2.562c5.385,7.486,2.75,19.922,0,32.43H466.828C463.717,495.068,461.361,482.121,466.828,476.271Z" transform="translate(-5.977 -169.522)" fill="#e6e6e6"/>
      <circle id="Ellipse_13" data-name="Ellipse 13" cx="6.827" cy="6.827" r="6.827" transform="translate(466.325 313.15)" fill="#fff"/>
      <path id="Tracé_35" data-name="Tracé 35" d="M336.9,348.187l109.628,35.377a3.876,3.876,0,0,0,4.873-2.5L465.271,338.1a3.876,3.876,0,0,0-2.5-4.873L353.148,297.848a3.876,3.876,0,0,0-4.873,2.5l-13.866,42.971a3.876,3.876,0,0,0,2.5,4.873Z" transform="translate(152.561 -169.522)" fill="#f2f2f2"/>
      <path id="Tracé_36" data-name="Tracé 36" d="M361.01,354.088l66.659,21.51a19.709,19.709,0,0,0,24.782-12.69l2.635-8.167A19.709,19.709,0,0,0,442.4,329.96l-74.825-24.146a19.709,19.709,0,0,0-24.782,12.69A28.3,28.3,0,0,0,361.01,354.088Z" transform="translate(154.781 -169.522)" fill="#fff"/>
      <path id="Tracé_37" data-name="Tracé 37" d="M363.821,326.3l44.063,14.218a1,1,0,0,0,.613-1.9L364.435,324.4a1,1,0,0,0-.613,1.9Z" transform="translate(179.943 -169.522)" fill="#e6e6e6"/>
      <path id="Tracé_38" data-name="Tracé 38" d="M367.093,329.24l66.367,21.416a1,1,0,1,0,.613-1.9L367.707,327.34a1,1,0,1,0-.613,1.9Z" transform="translate(151.096 -169.522)" fill="#e6e6e6"/>
      <path id="Tracé_39" data-name="Tracé 39" d="M370.364,339.378l66.368,21.416a1,1,0,1,0,.613-1.9l-66.367-21.416a1,1,0,0,0-.613,1.9Z" transform="translate(144.554 -169.522)" fill="#e6e6e6"/>
      <path id="Tracé_40" data-name="Tracé 40" d="M370.364,339.378l66.368,21.416a1,1,0,1,0,.613-1.9l-66.367-21.416a1,1,0,0,0-.613,1.9Z" transform="translate(144.554 -169.522)" fill="#e6e6e6"/>
      <circle id="Ellipse_15" data-name="Ellipse 15" cx="11.551" cy="11.551" r="11.551" transform="translate(497.934 123.319)" fill="#f4f0ec"/>
      <path id="Tracé_41" data-name="Tracé 41" d="M444.832,309.025a1,1,0,0,0,.8-.4l2.449-3.266a1,1,0,1,0-1.6-1.2l-1.6,2.136-4.115-6.173a1,1,0,0,0-1.662,1.108l4.9,7.348a1,1,0,0,0,.8.444Z" transform="translate(65.059 -169.522)" fill="#fff"/>
    </g>
  </g>
</svg>
