<svg xmlns="http://www.w3.org/2000/svg" viewBox="0 0 32 20">
  <path d="M2.912,14.828H7.338v1.048H2.912ZM22.544,11.5a2.559,2.559,0,0,1,2.049,1.023,2.592,2.592,0,0,1,2.864-.887,2.5,2.5,0,0,1,0,4.781,2.592,2.592,0,0,1-2.864-.887,2.592,2.592,0,0,1-3.115.773,2.5,2.5,0,0,1-1.435-2.822,2.552,2.552,0,0,1,2.5-1.98Zm7.676,7.488a.759.759,0,0,0,.75-.718V8.692H1v9.582a.669.669,0,0,0,.214.511A.754.754,0,0,0,1.735,19Zm-28.48,1A1.721,1.721,0,0,1,.5,19.481,1.667,1.667,0,0,1-.02,18.267V1.723A1.7,1.7,0,0,1,.494.5,1.766,1.766,0,0,1,1.74,0H30.22a1.745,1.745,0,0,1,1.76,1.723V18.274a1.693,1.693,0,0,1-.521,1.214A1.79,1.79,0,0,1,30.217,20H1.737ZM1,3.722H30.97v-2a.7.7,0,0,0-.227-.511.738.738,0,0,0-.521-.222H1.74a.735.735,0,0,0-.521.222.7.7,0,0,0-.214.511v2ZM9.382,14.828h7.366v1.048H9.382Z" transform="translate(0.02 0)" fill="#3f3f3f" fill-rule="evenodd"/>
</svg>
