<svg xmlns="http://www.w3.org/2000/svg" viewBox="0 0 896 747.971">
  <g id="undraw_empty_cart_co35" transform="translate(0 0)">
    <path id="Tracé_64" data-name="Tracé 64" d="M193.634,788.752C206.062,811.8,232.44,821.7,232.44,821.7s6.227-27.475-6.2-50.524-38.806-32.943-38.806-32.943S181.206,765.7,193.634,788.752Z" transform="translate(-152 -76.014)" fill="#2f2e41"/>
    <path id="Tracé_65" data-name="Tracé 65" d="M202.177,781.169c22.438,13.5,31.08,40.314,31.08,40.314s-27.738,4.927-50.176-8.573S152,772.6,152,772.6,179.738,767.67,202.177,781.169Z" transform="translate(-152 -76.014)" fill="#f4f0ec"/>
    <rect id="Rectangle_36" data-name="Rectangle 36" width="140" height="2" transform="translate(413.249 35.908)" fill="#f2f2f2"/>
    <rect id="Rectangle_37" data-name="Rectangle 37" width="2" height="18.5" transform="translate(513.248 37.408)" fill="#f2f2f2"/>
    <rect id="Rectangle_38" data-name="Rectangle 38" width="2" height="18.5" transform="translate(452.249 37.408)" fill="#f2f2f2"/>
    <rect id="Rectangle_39" data-name="Rectangle 39" width="140" height="2" transform="translate(484.249 131.908)" fill="#f2f2f2"/>
    <rect id="Rectangle_40" data-name="Rectangle 40" width="2" height="18.5" transform="translate(522.248 113.908)" fill="#f2f2f2"/>
    <rect id="Rectangle_41" data-name="Rectangle 41" width="2" height="18.5" transform="translate(583.248 113.908)" fill="#f2f2f2"/>
    <rect id="Rectangle_42" data-name="Rectangle 42" width="140" height="2" transform="translate(670.248 176.908)" fill="#f2f2f2"/>
    <rect id="Rectangle_43" data-name="Rectangle 43" width="2" height="18.5" transform="translate(708.248 158.908)" fill="#f2f2f2"/>
    <rect id="Rectangle_44" data-name="Rectangle 44" width="2" height="18.5" transform="translate(769.248 158.908)" fill="#f2f2f2"/>
    <rect id="Rectangle_45" data-name="Rectangle 45" width="140" height="2" transform="translate(656.248 640.908)" fill="#f2f2f2"/>
    <rect id="Rectangle_46" data-name="Rectangle 46" width="2" height="18.5" transform="translate(694.248 622.908)" fill="#f2f2f2"/>
    <rect id="Rectangle_47" data-name="Rectangle 47" width="2" height="18.5" transform="translate(755.248 622.908)" fill="#f2f2f2"/>
    <rect id="Rectangle_48" data-name="Rectangle 48" width="140" height="2" transform="translate(417.249 319.908)" fill="#f2f2f2"/>
    <rect id="Rectangle_49" data-name="Rectangle 49" width="2" height="18.5" transform="translate(455.249 301.908)" fill="#f2f2f2"/>
    <rect id="Rectangle_50" data-name="Rectangle 50" width="2" height="18.5" transform="translate(516.248 301.908)" fill="#f2f2f2"/>
    <rect id="Rectangle_51" data-name="Rectangle 51" width="140" height="2" transform="translate(461.249 560.908)" fill="#f2f2f2"/>
    <rect id="Rectangle_52" data-name="Rectangle 52" width="2" height="18.5" transform="translate(499.249 542.908)" fill="#f2f2f2"/>
    <rect id="Rectangle_53" data-name="Rectangle 53" width="2" height="18.5" transform="translate(560.248 542.908)" fill="#f2f2f2"/>
    <rect id="Rectangle_54" data-name="Rectangle 54" width="140" height="2" transform="translate(685.248 487.908)" fill="#f2f2f2"/>
    <rect id="Rectangle_55" data-name="Rectangle 55" width="2" height="18.5" transform="translate(723.248 469.908)" fill="#f2f2f2"/>
    <rect id="Rectangle_56" data-name="Rectangle 56" width="2" height="18.5" transform="translate(784.248 469.908)" fill="#f2f2f2"/>
    <path id="Tracé_66" data-name="Tracé 66" d="M362.06,702.184H125.274v-1.7H360.356v-82.62H145.18l-10.453-21.777,1.536-.737,9.989,20.81H362.06Z" fill="#2f2e41"/>
    <circle id="Ellipse_17" data-name="Ellipse 17" cx="17.887" cy="17.887" r="17.887" transform="translate(138.902 708.146)" fill="#3f3d56"/>
    <circle id="Ellipse_18" data-name="Ellipse 18" cx="17.887" cy="17.887" r="17.887" transform="translate(315.214 708.146)" fill="#3f3d56"/>
    <circle id="Ellipse_19" data-name="Ellipse 19" cx="11.073" cy="11.073" r="11.073" transform="translate(529.854 335.08)" fill="#3f3d56"/>
    <path id="Tracé_67" data-name="Tracé 67" d="M539.385,665.767H273.237L215.648,477.531H598.693l-.349,1.108Zm-264.888-1.7H538.136l58.234-184.83H217.951Z" transform="translate(-152 -76.014)" fill="#2f2e41"/>
    <path id="Tracé_68" data-name="Tracé 68" d="M366.61,579.958H132.842L82.26,413.015H418.7l-.306.983Z" fill="#f2f2f2"/>
    <path id="Tracé_69" data-name="Tracé 69" d="M451.465,384.7l-1.647-.437,11.241-42.369h65.389v1.7H462.37Z" fill="#2f2e41"/>
    <rect id="Rectangle_57" data-name="Rectangle 57" width="345.293" height="1.704" transform="translate(82.258 458.584)" fill="#2f2e41"/>
    <rect id="Rectangle_58" data-name="Rectangle 58" width="306.319" height="1.704" transform="translate(101.459 521.344)" fill="#2f2e41"/>
    <rect id="Rectangle_59" data-name="Rectangle 59" width="1.704" height="186.533" transform="translate(254.314 402.368)" fill="#2f2e41"/>
    <rect id="Rectangle_60" data-name="Rectangle 60" width="186.929" height="1.704" transform="matrix(0.065, -0.998, 0.998, 0.065, 320.059, 588.845)" fill="#2f2e41"/>
    <rect id="Rectangle_61" data-name="Rectangle 61" width="1.704" height="186.929" transform="translate(176.38 402.422) rotate(-3.729)" fill="#2f2e41"/>
    <rect id="Rectangle_62" data-name="Rectangle 62" width="896" height="2" transform="translate(0 745)" fill="#2f2e41"/>
    <path id="Tracé_70" data-name="Tracé 70" d="M747.411,137.89s14.618,41.606,5.622,48.007,30.361,58.676,30.361,58.676l47.229-12.8-25.863-43.74s-3.373-43.74-3.373-50.141S747.411,137.89,747.411,137.89Z" transform="translate(-152 -76.014)" fill="#ffb6b6"/>
    <path id="Tracé_71" data-name="Tracé 71" d="M747.411,137.89s14.618,41.606,5.622,48.007,30.361,58.676,30.361,58.676l47.229-12.8-25.863-43.74s-3.373-43.74-3.373-50.141S747.411,137.89,747.411,137.89Z" transform="translate(-152 -76.014)" opacity="0.1"/>
    <path id="Tracé_72" data-name="Tracé 72" d="M722.874,434.468s-4.267,53.341,0,81.079S733.542,620.1,733.542,620.1s0,145.089,23.47,147.222,40.539,4.267,42.673-4.267-10.668-12.8-4.267-17.069,8.535-19.2,0-36.272,0-189.9,0-189.9L835.958,628.63s4.267,89.614,8.535,102.415-4.267,36.272,10.668,38.406,32-10.668,40.539-14.936-12.8-4.267-8.535-6.4,17.069-8.535,12.8-10.668S891.433,632.9,891.433,632.9,879.7,414.2,864.762,405.664s-24.537,6.166-24.537,6.166Z" transform="translate(-152 -76.014)" fill="#2f2e41"/>
    <path id="Tracé_73" data-name="Tracé 73" d="M761.279,758.784v17.069s-19.2,46.4,0,46.4,34.138,4.808,34.138-1.593V763.051Z" transform="translate(-152 -76.014)" fill="#2f2e41"/>
    <path id="Tracé_74" data-name="Tracé 74" d="M887.165,758.754v17.069s19.2,46.4,0,46.4-34.138,4.808-34.138-1.593V763.021Z" transform="translate(-152 -76.014)" fill="#2f2e41"/>
    <circle id="Ellipse_20" data-name="Ellipse 20" cx="38.406" cy="38.406" r="38.406" transform="translate(586.876 16.002)" fill="#ffb6b6"/>
    <path id="Tracé_75" data-name="Tracé 75" d="M765.547,201.9s10.668,32,27.737,25.6l17.069-6.4,29.871,204.831s-23.47,34.138-57.609,12.8S765.547,201.9,765.547,201.9Z" transform="translate(-152 -76.014)" fill="#f4f0ec"/>
    <path id="Tracé_76" data-name="Tracé 76" d="M795.418,195.5l9.6-20.27S861.561,201.9,870.1,210.435s8.535,21.337,8.535,21.337l-14.936,53.341s4.267,117.351,4.267,121.618,14.936,27.737,4.267,19.2-12.8-17.069-21.336-4.267S823.156,449.4,823.156,449.4Z" transform="translate(-152 -76.014)" fill="#3f3d56"/>
    <path id="Tracé_77" data-name="Tracé 77" d="M870.1,349.122l-6.4,59.742S825.289,443,833.824,445.136s12.8-6.4,12.8-6.4,14.936,14.936,23.47,6.4,29.871-89.613,29.871-89.613Z" transform="translate(-152 -76.014)" fill="#ffb6b6"/>
    <path id="Tracé_78" data-name="Tracé 78" d="M778.1,76.144c-8.514-.3-17.625-.455-24.8,4.133a36.312,36.312,0,0,0-8.572,8.392c-6.992,8.838-13.032,19.959-10.435,30.925l3.016-1.176a19.75,19.75,0,0,1-1.9,8.462c.424-1.234,1.847.762,1.466,2.011l-3.323,10.9c5.462-2,12.257,2.052,13.088,7.81.38-12.661,1.693-27.18,11.964-34.593,5.18-3.739,11.735-4.88,18.042-5.894,5.818-.935,11.918-1.827,17.491.089s10.319,7.615,9.055,13.371c2.57-.885,5.444.906,6.713,3.309s1.337,5.238,1.375,7.955c2.739,1.936,5.856-1.908,6.973-5.071,2.62-7.424,4.949-15.327,3.538-23.073s-7.723-15.148-15.6-15.174a5.467,5.467,0,0,0,1.422-3.849l-6.489-.548a7.172,7.172,0,0,0,4.286-2.26C802.8,84.73,782.313,76.295,778.1,76.144Z" transform="translate(-152 -76.014)" fill="#2f2e41"/>
    <path id="Tracé_79" data-name="Tracé 79" d="M776.215,189.1s-17.369-17.021-23.62-15.978S737.809,189.1,737.809,189.1s-51.208,17.069-49.074,34.139,25.6,100.281,25.6,100.281,19.2,100.282,2.134,110.95,81.079,38.406,83.213,25.6,6.4-140.821,0-160.024S776.215,189.1,776.215,189.1Z" transform="translate(-152 -76.014)" fill="#3f3d56"/>
    <path id="Tracé_80" data-name="Tracé 80" d="M850.893,223.236h26.383s18.424,81.079,20.557,89.614,6.4,49.074,4.267,49.074-44.807-8.535-44.807-2.134Z" transform="translate(-152 -76.014)" fill="#3f3d56"/>
    <path id="Tracé_81" data-name="Tracé 81" d="M850,424.014H749c-9.856-45.34-10.68-89.147,0-131H850C833.7,334.115,832.682,377.621,850,424.014Z" transform="translate(-152 -76.014)" fill="#f2f2f2"/>
    <path id="Tracé_82" data-name="Tracé 82" d="M707.938,368.325l29.871,12.8s57.609,8.535,57.609-14.936-57.609-10.668-57.609-10.668l-19.2-6.14Z" transform="translate(-152 -76.014)" fill="#ffb6b6"/>
    <path id="Tracé_83" data-name="Tracé 83" d="M714.339,210.435l-25.6,6.4-19.2,113.083s-6.4,29.871,4.267,32,40.54,19.2,40.54,19.2,4.267-32,12.8-32L705.8,332.053l12.8-74.678Z" transform="translate(-152 -76.014)" fill="#3f3d56"/>
    <rect id="Rectangle_63" data-name="Rectangle 63" width="140" height="2" transform="translate(60.249 352.908)" fill="#f2f2f2"/>
    <rect id="Rectangle_64" data-name="Rectangle 64" width="2" height="18.5" transform="translate(98.248 334.908)" fill="#f2f2f2"/>
    <rect id="Rectangle_65" data-name="Rectangle 65" width="2" height="18.5" transform="translate(159.249 334.908)" fill="#f2f2f2"/>
    <rect id="Rectangle_66" data-name="Rectangle 66" width="140" height="2" transform="translate(109.248 56.908)" fill="#f2f2f2"/>
    <rect id="Rectangle_67" data-name="Rectangle 67" width="2" height="18.5" transform="translate(209.249 58.408)" fill="#f2f2f2"/>
    <rect id="Rectangle_68" data-name="Rectangle 68" width="2" height="18.5" transform="translate(148.249 58.408)" fill="#f2f2f2"/>
    <rect id="Rectangle_69" data-name="Rectangle 69" width="140" height="2" transform="translate(250.249 253.908)" fill="#f2f2f2"/>
    <rect id="Rectangle_70" data-name="Rectangle 70" width="2" height="18.5" transform="translate(350.249 255.408)" fill="#f2f2f2"/>
    <rect id="Rectangle_71" data-name="Rectangle 71" width="2" height="18.5" transform="translate(289.249 255.408)" fill="#f2f2f2"/>
    <rect id="Rectangle_72" data-name="Rectangle 72" width="140" height="2" transform="translate(12.248 252.908)" fill="#f2f2f2"/>
    <rect id="Rectangle_73" data-name="Rectangle 73" width="2" height="18.5" transform="translate(112.248 254.408)" fill="#f2f2f2"/>
    <rect id="Rectangle_74" data-name="Rectangle 74" width="2" height="18.5" transform="translate(51.249 254.408)" fill="#f2f2f2"/>
    <rect id="Rectangle_75" data-name="Rectangle 75" width="140" height="2" transform="translate(180.249 152.908)" fill="#f2f2f2"/>
    <rect id="Rectangle_76" data-name="Rectangle 76" width="2" height="18.5" transform="translate(218.249 134.908)" fill="#f2f2f2"/>
    <rect id="Rectangle_77" data-name="Rectangle 77" width="2" height="18.5" transform="translate(279.249 134.908)" fill="#f2f2f2"/>
  </g>
</svg>
