<svg xmlns="http://www.w3.org/2000/svg" viewBox="0 0 32 32">
  <path id="Tracé_2" data-name="Tracé 2" d="M42.72,43.261l-3.9-23.116a1.334,1.334,0,0,0-1.306-1.113h-4.5C31.766,16.1,29.663,13,26.776,13s-4.99,3.1-6.244,6.033h-4.5a1.328,1.328,0,0,0-1.306,1.113L10.8,43.446A1.224,1.224,0,0,0,12.106,45H41.466A1.405,1.405,0,0,0,42.72,43.261ZM26.776,15.667c1.228,0,2.423,1.574,3.331,3.365H23.445C24.353,17.241,25.548,15.667,26.776,15.667ZM13.667,42.339l3.481-20.633h2.443a9.647,9.647,0,0,0-.411,2.18,1.319,1.319,0,1,0,2.639,0,8.563,8.563,0,0,1,.5-2.18h8.889a8.563,8.563,0,0,1,.5,2.18,1.319,1.319,0,1,0,2.639,0,9.647,9.647,0,0,0-.411-2.18h2.443l3.481,20.633h-26.2Z" transform="translate(-10.765 -13)" fill="#fff"/>
</svg>
