<svg xmlns="http://www.w3.org/2000/svg" viewBox="0 0 20 20">
  <g id="XMLID_23_" transform="translate(0 -10)">
    <path id="XMLID_24_" d="M84.219,25.894q.03.034.063.065l.03.025c.012.011.025.022.037.031l.037.026.035.023.039.021.037.019.038.016.04.016.039.011.042.012.045.008.037.006a.759.759,0,0,0,.084,0,.743.743,0,0,0,.084,0l.038-.006.045-.008.043-.012.038-.011.041-.016.038-.016.037-.02.038-.021.035-.023.037-.025.037-.031.03-.026q.031-.029.06-.061l0,0,3.972-4.53a1.07,1.07,0,0,0,0-1.373.779.779,0,0,0-1.2,0l-2.519,2.873V10.971a.858.858,0,1,0-1.7,0V22.864l-2.519-2.873a.779.779,0,0,0-1.2,0,1.07,1.07,0,0,0,0,1.373Z" transform="translate(-74.821)" fill="#e0716d"/>
    <path id="XMLID_25_" d="M19.091,160a.941.941,0,0,0-.909.971v7.442H1.818v-7.442A.941.941,0,0,0,.909,160a.941.941,0,0,0-.909.971v8.413a.941.941,0,0,0,.909.971H19.091a.941.941,0,0,0,.909-.971v-8.413A.941.941,0,0,0,19.091,160Z" transform="translate(0 -140.354)" fill="#e0716d"/>
  </g>
</svg>
