<svg xmlns="http://www.w3.org/2000/svg" viewBox="0 0 29.996 32">
  <g id="login-svgrepo-com" transform="translate(-8.953)">
    <path id="Tracé_56" data-name="Tracé 56" d="M71.457,86.787H89.279l-4.3-4.3a1.455,1.455,0,1,1,2.057-2.057l6.788,6.788a1.454,1.454,0,0,1,0,2.057l-6.788,6.788A1.454,1.454,0,1,1,84.974,94l4.3-4.305H71.457a1.455,1.455,0,0,1,0-2.909Z" transform="translate(-55.295 -72.242)" fill="#fff"/>
    <path id="Tracé_57" data-name="Tracé 57" d="M24.065,29.091H12.91V2.909H24.065a1.455,1.455,0,1,0,0-2.909H11.455A1.455,1.455,0,0,0,10,1.455V30.545A1.455,1.455,0,0,0,11.455,32h12.61a1.455,1.455,0,1,0,0-2.909Z" transform="translate(-1.047)" fill="#fff"/>
  </g>
</svg>
