<svg xmlns="http://www.w3.org/2000/svg" viewBox="0 0 559.986 480.527">
  <g id="undraw_done_re_oak4" transform="translate(0 0)">
    <path id="Path_438" data-name="Path 438" d="M310.253,682.7a19.916,19.916,0,0,0,19.232-3.388c6.736-5.654,8.848-14.966,10.566-23.591l5.083-25.511-10.641,7.327c-7.653,5.269-15.478,10.708-20.776,18.34s-7.61,18.051-3.354,26.31" transform="translate(-268.202 -241.724)" fill="#e6e6e6"/>
    <path id="Path_439" data-name="Path 439" d="M312.253,720.058c-1.339-9.758-2.717-19.642-1.776-29.5.835-8.759,3.507-17.313,8.947-24.329a40.47,40.47,0,0,1,10.384-9.41c1.038-.655,1.994.99.96,1.643a38.476,38.476,0,0,0-15.22,18.363c-3.313,8.427-3.846,17.614-3.275,26.567.345,5.414,1.078,10.792,1.814,16.164a.986.986,0,0,1-.665,1.17.957.957,0,0,1-1.17-.665Z" transform="translate(-268.56 -246.42)" fill="#f2f2f2"/>
    <path id="Path_442" data-name="Path 442" d="M324.424,711.277a14.661,14.661,0,0,0,12.775,6.6c6.468-.307,11.859-4.82,16.711-9.105l14.354-12.674-9.5-.455c-6.832-.327-13.84-.634-20.347,1.475s-12.508,7.177-13.7,13.913" transform="translate(-271.091 -253.297)" fill="#e6e6e6"/>
    <path id="Path_443" data-name="Path 443" d="M308.073,734.2c6.448-11.409,13.927-24.089,27.291-28.142a30.453,30.453,0,0,1,11.478-1.185c1.219.105.914,1.984-.3,1.879a28.292,28.292,0,0,0-18.318,4.846c-5.165,3.516-9.187,8.4-12.591,13.587-2.085,3.175-3.953,6.485-5.82,9.79C309.215,736.035,307.469,735.273,308.073,734.2Z" transform="translate(-268.166 -254.957)" fill="#f2f2f2"/>
    <path id="Path_141" data-name="Path 141" d="M857.784,496.286H502.289a4.137,4.137,0,0,1-4.132-4.132V162.016a4.137,4.137,0,0,1,4.132-4.132H857.784a4.137,4.137,0,0,1,4.132,4.132V492.152a4.137,4.137,0,0,1-4.132,4.132Z" transform="translate(-301.929 -157.884)" fill="#fff"/>
    <path id="Path_141-2" data-name="Path 141" d="M857.784,496.286H502.289a4.137,4.137,0,0,1-4.132-4.132V162.016a4.137,4.137,0,0,1,4.132-4.132H857.784a4.137,4.137,0,0,1,4.132,4.132V492.152a4.137,4.137,0,0,1-4.132,4.132ZM502.289,159.533a2.482,2.482,0,0,0-2.477,2.477V492.152a2.482,2.482,0,0,0,2.477,2.477H857.784a2.482,2.482,0,0,0,2.477-2.477V162.016a2.482,2.482,0,0,0-2.477-2.477Z" transform="translate(-301.929 -157.884)" fill="#cacaca"/>
    <path id="Path_142" data-name="Path 142" d="M706.8,262.185a2.805,2.805,0,1,0,0,5.61H860.729a2.805,2.805,0,1,0,0-5.61Z" transform="translate(-338.467 -176.398)" fill="#e4e4e4"/>
    <path id="Path_143" data-name="Path 143" d="M706.8,282.65a2.805,2.805,0,1,0,0,5.61h78.581a2.805,2.805,0,0,0,0-5.61Z" transform="translate(-338.467 -180.031)" fill="#e4e4e4"/>
    <path id="Path_142-2" data-name="Path 142" d="M543.236,392.7a2.805,2.805,0,1,0,0,5.61H831.844a2.805,2.805,0,0,0,0-5.61Z" transform="translate(-309.433 -199.566)" fill="#e4e4e4"/>
    <path id="Path_143-2" data-name="Path 143" d="M543.236,413.17a2.805,2.805,0,1,0,0,5.61H756.5a2.805,2.805,0,0,0,0-5.61Z" transform="translate(-309.433 -203.199)" fill="#e4e4e4"/>
    <path id="Path_142-3" data-name="Path 142" d="M543.236,433.172a2.805,2.805,0,0,0,0,5.61H831.844a2.805,2.805,0,0,0,0-5.61Z" transform="translate(-309.433 -206.749)" fill="#e4e4e4"/>
    <path id="Path_143-3" data-name="Path 143" d="M543.236,453.637a2.805,2.805,0,1,0,0,5.61H756.5a2.805,2.805,0,0,0,0-5.61Z" transform="translate(-309.433 -210.382)" fill="#e4e4e4"/>
    <path id="Path_142-4" data-name="Path 142" d="M543.236,474.172a2.805,2.805,0,1,0,0,5.61H831.844a2.805,2.805,0,0,0,0-5.61Z" transform="translate(-309.433 -214.027)" fill="#e4e4e4"/>
    <path id="Path_143-4" data-name="Path 143" d="M543.236,494.637a2.805,2.805,0,1,0,0,5.61H756.5a2.805,2.805,0,0,0,0-5.61Z" transform="translate(-309.433 -217.659)" fill="#e4e4e4"/>
    <path id="Tracé_62" data-name="Tracé 62" d="M590.721,307.432a40.3,40.3,0,1,1,40.3-40.3A40.3,40.3,0,0,1,590.721,307.432Z" transform="translate(-311.206 -170.122)" fill="#f4f0ec"/>
    <path id="Tracé_63" data-name="Tracé 63" d="M442.261,504.032a10.074,10.074,0,0,0-12.3-9.346L416.64,475.913l-13.383,5.313,19.185,26.248a10.128,10.128,0,0,0,19.819-3.442Z" transform="translate(-285.084 -214.336)" fill="#a0616a"/>
    <path id="Tracé_64" data-name="Tracé 64" d="M410.413,483.511,370.1,431.218l15.1-47.467c1.107-11.934,8.574-15.266,8.892-15.4l.485-.208,13.143,35.048-9.65,25.733,23.685,39.835Z" transform="translate(-279.199 -195.206)" fill="#3f3d56"/>
    <path id="Tracé_65" data-name="Tracé 65" d="M583.685,312.4a10.074,10.074,0,0,0-8.367,12.984l-17.687,14.733,6.332,12.932,24.686-21.157a10.128,10.128,0,0,0-4.964-19.493Z" transform="translate(-312.486 -185.296)" fill="#ffb6b6"/>
    <path id="Tracé_66" data-name="Tracé 66" d="M565.5,341.826l-49.019,44.231L467.99,374.669c-11.984-.181-15.884-7.368-16.044-7.675l-.245-.467,33.927-15.813,26.4,7.631,37.885-26.694Z" transform="translate(-293.683 -188.728)" fill="#3f3d56"/>
    <path id="Tracé_67" data-name="Tracé 67" d="M227.247,557.473h13.171l6.265-50.8H227.245Z" transform="translate(-40.337 -89.937)" fill="#ffb6b6"/>
    <path id="Tracé_68" data-name="Tracé 68" d="M0,0H41.393V15.993H11.613A11.613,11.613,0,0,1,0,4.38V0Z" transform="translate(225.479 479.766) rotate(179.997)" fill="#2f2e41"/>
    <path id="Tracé_69" data-name="Tracé 69" d="M163.247,557.473h13.171l6.266-50.8H163.245Z" transform="translate(-28.977 -89.937)" fill="#ffb6b6"/>
    <path id="Tracé_70" data-name="Tracé 70" d="M0,0H41.393V15.993H11.613A11.613,11.613,0,0,1,0,4.38V0Z" transform="translate(172.839 479.766) rotate(179.997)" fill="#2f2e41"/>
    <path id="Tracé_71" data-name="Tracé 71" d="M157.552,342.991l1.074,75.2,1.075,98.834,23.634-2.148,11.818-136.434,15.04,136.434h24.4l2.458-137.508-8.594-30.08Z" transform="translate(-27.966 -60.883)" fill="#2f2e41"/>
    <path id="Tracé_72" data-name="Tracé 72" d="M458.856,480.948c-25.716,0-49.386-11.637-49.706-11.8l-.265-.133-2.158-51.79c-.626-1.83-12.948-37.942-15.035-49.421-2.115-11.629,28.531-21.835,32.253-23.029l.845-9.355,34.342-3.7,4.353,11.97,12.32,4.62a6.094,6.094,0,0,1,3.777,7.159l-6.848,27.847,16.724,92.13-3.6.156A65.372,65.372,0,0,1,458.856,480.948Z" transform="translate(-283.013 -188.742)" fill="#3f3d56"/>
    <circle id="Ellipse_17" data-name="Ellipse 17" cx="24.726" cy="24.726" r="24.726" transform="translate(126.735 102.496) rotate(-28.663)" fill="#ffb6b6"/>
    <path id="Tracé_73" data-name="Tracé 73" d="M427.513,311.384c4.712,5.02,13.464,2.325,14.078-4.533a8.284,8.284,0,0,0-.01-1.6c-.317-3.038-2.072-5.8-1.652-9a4.721,4.721,0,0,1,.864-2.21c3.755-5.028,12.57,2.249,16.114-2.3,2.173-2.791-.381-7.186,1.286-10.306,2.2-4.117,8.72-2.086,12.808-4.341,4.549-2.509,4.276-9.488,1.282-13.732-3.651-5.177-10.054-7.939-16.376-8.337s-12.6,1.311-18.5,3.611c-6.707,2.614-13.357,6.226-17.484,12.123-5.019,7.171-5.5,16.813-2.992,25.2C418.453,301.054,423.664,307.286,427.513,311.384Z" transform="translate(-287.248 -175.116)" fill="#2f2e41"/>
    <path id="Tracé_74" data-name="Tracé 74" d="M573.774,741.608H260.4a.823.823,0,1,1,0-1.645h313.37a.823.823,0,0,1,0,1.645Z" transform="translate(-259.581 -261.206)" fill="#cacaca"/>
    <path id="Tracé_75" data-name="Tracé 75" d="M593.1,287.863a2.869,2.869,0,0,1-1.959-.769L577.853,274.75a2.879,2.879,0,1,1,3.918-4.219l11.256,10.455,22.27-22.27a2.879,2.879,0,1,1,4.071,4.072L595.137,287.02A2.873,2.873,0,0,1,593.1,287.863Z" transform="translate(-315.913 -175.633)" fill="#fff"/>
  </g>
</svg>
