<svg xmlns="http://www.w3.org/2000/svg" viewBox="0 0 64 32">
  <path id="Tracé_1" data-name="Tracé 1" d="M64,157.681c0-5.516-3.1-8.07-8.841-9.265-.5-.1-1.024-.2-1.638-.3l-.788-.13-.758-.122c-.821-.134-1.356-.231-1.842-.339a4.614,4.614,0,0,1-.705-.233,1.064,1.064,0,0,0-.1-.05,28.833,28.833,0,0,1-3.871-2.157l-.08-.051-.247-.158-.255-.165-.217-.142-.11-.072a3.4,3.4,0,0,0-.683-3.636,3.125,3.125,0,0,0-4.526,0l-.008.008q-.748-.543-1.529-1.12a3.4,3.4,0,0,0-.337-4.273,3.125,3.125,0,0,0-4.526,0l-.33.341c-1.362-1.053-2.646-2.061-3.763-2.95-.03-.024-.062-.044-.093-.067a2.551,2.551,0,0,0-3.357.3l-1.534,1.587-.657.679a2.91,2.91,0,0,0-.489,3.322,2.831,2.831,0,0,0,.489.686l.6.617c.006.006.009.013.014.019a.446.446,0,0,1-.134.693l-.126.054-.153.062-.161.065c-.028.012-.054.026-.08.04a13.372,13.372,0,0,1-4.359,1.034,1.021,1.021,0,0,0-.187-.014,9.657,9.657,0,0,1-6.879-2.57,11.75,11.75,0,0,1-1.632-1.787,7.468,7.468,0,0,1-.506-.761,1.069,1.069,0,0,0-.74-.543,2.224,2.224,0,0,0-2.074.754c-1.448,1.472-2.591,4.97-3.786,10.229l-.021.094c-.5,2.219-.96,4.587-1.364,6.955-.143.84-.27,1.62-.378,2.321-.054.35-.094.616-.119.79L.057,160.6a1.14,1.14,0,0,0,.01.746,3.534,3.534,0,0,0,1.946,1.739c1.64.776,4.152,1.223,7.736,1.223H56.532a8.929,8.929,0,0,0,1.2-.163,10.783,10.783,0,0,0,2.435-.775A5.984,5.984,0,0,0,64,157.7C64,157.692,64,157.687,64,157.681ZM10.338,141.048a11.7,11.7,0,0,0,7.706,3.127,34.489,34.489,0,0,1,4.067,12.4H18.133v-3.311a3.256,3.256,0,0,0-3.2-3.311H4.6q.2-.993.42-1.954c.017-.077.034-.154.051-.231,1.106-4.865,2.4-8.334,3.111-9.139A13.581,13.581,0,0,0,10.338,141.048Zm-6.518,13c.109-.622.223-1.254.343-1.89h10.77a1.085,1.085,0,0,1,1.067,1.1v3.311H3.4q.049-.311.1-.651c.1-.589.2-1.192.3-1.8Zm47.823-4.012.761.123.774.127c.59.1,1.087.191,1.56.289,4.416.92,6.691,2.543,7.071,6H24.262A36.774,36.774,0,0,0,20.389,144a16.241,16.241,0,0,0,3.121-.856L36.37,151.8a9.5,9.5,0,0,0,12.948-2.225c.127.039.25.073.365.1C50.218,149.8,50.785,149.9,51.643,150.041ZM26.9,134.66a.473.473,0,0,1,.626-.056l.015.01c1.053.838,2.259,1.786,3.539,2.778l-.027.028-.381.394c-.02.02-.038.042-.057.062l-.059.065c-.022.025-.042.051-.063.076l-.047.057c-.022.028-.043.057-.064.085l-.037.051c-.022.031-.043.063-.064.094l-.029.044q-.033.052-.063.1l-.02.036c-.021.038-.042.077-.062.116l-.012.024c-.021.043-.042.086-.062.129l0,.007a3.377,3.377,0,0,0-.261.911v0c-.006.045-.011.09-.016.135,0,.007,0,.015,0,.022s0,.008,0,.011c0,.039-.006.078-.008.117,0,.018,0,.036,0,.055q0,.051,0,.1c0,.024,0,.049,0,.073s0,.057,0,.086,0,.062,0,.093,0,.046,0,.068c0,.039.007.078.012.117,0,.015,0,.03.005.045q.01.08.025.16v0q.018.1.041.2a3.367,3.367,0,0,0,.223.635l0,.01q.034.072.072.143l.01.019q.036.066.074.131l.015.025q.037.061.078.121l.019.029c.026.038.054.076.082.113l.023.03c.029.037.058.074.089.11l.023.027q.051.059.105.116l.013.015.011.012a3.259,3.259,0,0,0,.254.236l.026.021c.035.029.07.057.106.084l.019.015.026.017c.068.049.136.1.207.139l.046.027c.073.043.147.083.222.12h0A3.122,3.122,0,0,0,35.2,142.5l.679-.7.426-.441q.761.563,1.492,1.1l-.723.748c-.021.021-.039.043-.059.065l-.057.062c-.022.026-.044.052-.065.079l-.045.055c-.023.029-.044.058-.066.088l-.035.048c-.022.032-.044.064-.065.1l-.027.042q-.033.053-.064.107l-.019.033q-.033.058-.063.118l-.011.022q-.033.065-.063.131l0,0a3.369,3.369,0,0,0-.262.913v0c-.006.045-.011.091-.016.136,0,.007,0,.014,0,.021s0,.007,0,.011c0,.04-.006.08-.008.119,0,.017,0,.034,0,.051,0,.035,0,.07,0,.105s0,.045,0,.068,0,.061,0,.091,0,.057,0,.086,0,.05.005.075.007.072.011.108c0,.018,0,.036.006.054.006.048.014.1.022.144l0,.018a3.39,3.39,0,0,0,.192.664l.008.018q.028.069.06.137l.015.031c.019.04.039.08.06.12l.022.041q.029.053.06.106l.029.049q.029.047.06.093l.037.055c.019.028.039.055.059.082l.046.061.057.07.055.066.054.06c.021.024.042.047.065.07l0,0,.049.048q.072.072.15.14l.046.041c.033.028.067.054.1.08l.03.023.03.024c.014.01.028.018.042.028.054.038.108.075.164.11l.093.055c.058.033.116.065.175.094l.038.019a3.122,3.122,0,0,0,3.609-.663l.076-.079,0,0,.815-.843.706-.73q2.381,1.572,4.06,2.459a7.406,7.406,0,0,1-9.727,1.271l-11.975-8.064a2.739,2.739,0,0,0,.472-1.972v-.005c-.011-.076-.024-.151-.042-.226v0c-.015-.066-.034-.131-.054-.2l-.016-.05c-.022-.065-.045-.129-.072-.192l-.016-.034q-.034-.079-.074-.155L25.725,139c-.032-.058-.066-.116-.1-.172l-.02-.029c-.034-.051-.071-.1-.109-.151l-.04-.05c-.045-.056-.093-.11-.143-.163l0,0-.6-.617a.626.626,0,0,1-.133-.207.643.643,0,0,1,.133-.679l.652-.675Zm15.453,7.758a1.132,1.132,0,0,1,0,1.562l-.046.048-.007.007-.663.686-1.475,1.526a1.167,1.167,0,0,1-1.254.3,1.049,1.049,0,0,1-.227-.14l-.03-.025-.044-.041c-.017-.017-.033-.034-.049-.051l-.026-.029q-.029-.035-.055-.071l-.013-.018q-.03-.044-.055-.09l0-.008a1.135,1.135,0,0,1-.13-.437c0-.018,0-.036,0-.054s0-.035,0-.053,0-.046,0-.069,0-.025,0-.038.006-.051.011-.076,0-.02.005-.031c.005-.026.011-.052.018-.078l.008-.027c.008-.026.016-.052.026-.077l.011-.027c.01-.025.021-.05.033-.074l.015-.027c.013-.024.026-.047.04-.07l.019-.027c.015-.022.03-.044.047-.066l.014-.017c.019-.023.038-.046.059-.068l.674-.7.948-.981,0,0,.636-.659A1.042,1.042,0,0,1,42.354,142.418Zm-6.4-5.385a1.132,1.132,0,0,1,0,1.562l-.508.525-.009.009-1.665,1.723a1.166,1.166,0,0,1-1.271.309l-.047-.022-.018-.01a1.068,1.068,0,0,1-.144-.1c-.016-.013-.033-.027-.049-.041l-.028-.027c-.022-.022-.044-.044-.064-.067l-.013-.015a1.1,1.1,0,0,1-.067-.087l0,0a1.132,1.132,0,0,1-.193-.541c0-.017,0-.035,0-.052s0-.036,0-.055,0-.047,0-.07,0-.024,0-.036.007-.052.011-.078c0-.009,0-.018,0-.027.005-.027.012-.055.019-.082l.006-.022c.008-.028.017-.055.028-.082l.008-.02c.011-.027.023-.054.036-.081l.01-.018c.014-.027.029-.053.045-.079l.008-.012a1.1,1.1,0,0,1,.129-.163l.818-.847.463-.479.005-.006.977-1.011A1.042,1.042,0,0,1,35.954,137.034ZM59.3,161.35a8.745,8.745,0,0,1-1.965.622,7.41,7.41,0,0,1-.867.127l-46.717,0c-3.3,0-5.521-.4-6.849-1.023a3.541,3.541,0,0,1-.624-.366l.638-1.922H61.729A4.03,4.03,0,0,1,59.3,161.35Z" transform="translate(0 -132.304)" fill="#fff"/>
</svg>
