<svg xmlns="http://www.w3.org/2000/svg" viewBox="0 0 16 16">
    <path id="star-svgrepo-com"
        d="M8.773,1.549l1.8,3.824a.865.865,0,0,0,.649.493l4.035.613a.912.912,0,0,1,.478,1.537l-2.92,2.976a.927.927,0,0,0-.248.8l.689,4.2a.87.87,0,0,1-1.25.95L8.4,14.957a.829.829,0,0,0-.8,0L3.99,16.941a.87.87,0,0,1-1.25-.95l.689-4.2a.927.927,0,0,0-.248-.8L.262,8.015A.912.912,0,0,1,.739,6.479l4.035-.613a.865.865,0,0,0,.649-.493l1.8-3.824A.845.845,0,0,1,8.773,1.549Z"
        transform="translate(-0.001 -1.047)" fill="#F4F0EC" />
</svg>