<svg xmlns="http://www.w3.org/2000/svg" viewBox="0 0 12 14">
  <path d="M38.114,1.743H35.443a1.881,1.881,0,0,0-3.751,0H29.02a1.475,1.475,0,0,0-1.453,1.492,1.477,1.477,0,0,0,1.381,1.49V12.2A1.781,1.781,0,0,0,30.7,14h5.727a1.781,1.781,0,0,0,1.755-1.8V4.724a1.477,1.477,0,0,0,1.381-1.49A1.475,1.475,0,0,0,38.114,1.743ZM33.567.916a1,1,0,0,1,.975.827H32.592A1,1,0,0,1,33.567.916ZM37.293,12.2a.875.875,0,0,1-.863.885H30.7a.875.875,0,0,1-.863-.885V4.726h7.453Zm.82-8.388H29.02a.576.576,0,0,1,0-1.151h9.093a.576.576,0,0,1,0,1.151Z" transform="translate(-27.567)" fill="#e0716d"/>
</svg>
