<svg xmlns="http://www.w3.org/2000/svg" viewBox="0 0 28 32">
  <g id="Groupe_3" data-name="Groupe 3" transform="translate(0)">
    <path id="Tracé_4" data-name="Tracé 4" d="M187.162,88.435a6.267,6.267,0,1,0-6.262-6.272A6.272,6.272,0,0,0,187.162,88.435Zm0-9.876a3.6,3.6,0,1,1-3.6,3.6A3.606,3.606,0,0,1,187.162,78.559Z" transform="translate(-173.162 -75.9)" fill="#fff"/>
    <path id="Tracé_5" data-name="Tracé 5" d="M141.175,236.446a12.949,12.949,0,0,0-21.107,0A23.6,23.6,0,0,0,116.63,247.3a1.475,1.475,0,1,0,2.934.308c.931-9.055,4.653-13.642,11.057-13.642s10.127,4.588,11.057,13.642a1.483,1.483,0,0,0,1.467,1.331.718.718,0,0,0,.153-.011,1.48,1.48,0,0,0,1.314-1.628A23.56,23.56,0,0,0,141.175,236.446Z" transform="translate(-116.621 -216.942)" fill="#fff"/>
  </g>
</svg>
