<?xml version="1.0" standalone="no"?>
<!DOCTYPE svg PUBLIC "-//W3C//DTD SVG 20010904//EN"
 "http://www.w3.org/TR/2001/REC-SVG-20010904/DTD/svg10.dtd">
<svg version="1.0" xmlns="http://www.w3.org/2000/svg"
 width="4096.000000pt" height="4096.000000pt" viewBox="0 0 4096.000000 4096.000000"
 preserveAspectRatio="xMidYMid meet">
<metadata>
Created by potrace 1.14, written by Peter Selinger 2001-2017
</metadata>
<g transform="translate(0.000000,4096.000000) scale(0.100000,-0.100000)"
fill="#000000" stroke="none">
<path d="M17299 30716 c-2 -2 -33 -7 -69 -10 -36 -4 -85 -12 -110 -17 -25 -6
-56 -13 -70 -15 -58 -11 -240 -78 -326 -120 -109 -53 -244 -139 -329 -211 -85
-72 -171 -159 -734 -743 -40 -41 -171 -176 -291 -300 -120 -124 -246 -255
-281 -291 -35 -37 -116 -121 -179 -186 -63 -66 -124 -131 -135 -144 -106 -128
-182 -245 -251 -387 -52 -106 -126 -310 -137 -377 -3 -16 -12 -68 -20 -115 -9
-47 -19 -107 -22 -135 -8 -64 -8 -305 0 -370 9 -74 34 -214 45 -260 6 -22 13
-50 15 -62 20 -91 117 -316 195 -453 29 -51 140 -202 190 -260 12 -14 114
-120 227 -237 229 -237 259 -273 279 -340 39 -129 -17 -271 -129 -329 -104
-55 -684 -284 -912 -361 -259 -88 -597 -189 -726 -218 -11 -2 -29 -7 -39 -10
-10 -3 -27 -8 -37 -10 -10 -2 -88 -19 -173 -39 -138 -31 -233 -50 -295 -61
-292 -48 -314 -52 -410 -64 -119 -15 -162 -20 -245 -27 -41 -3 -91 -8 -110
-11 -36 -4 -685 -3 -795 2 -82 4 -242 15 -285 20 -19 2 -64 7 -100 10 -108 11
-200 22 -235 29 -11 2 -45 7 -75 12 -30 4 -57 8 -60 9 -3 1 -25 5 -50 9 -42 7
-176 33 -210 41 -8 2 -46 10 -85 19 -169 37 -464 121 -600 171 -38 15 -77 28
-86 30 -21 4 -290 111 -359 142 -218 98 -354 165 -500 246 -30 16 -73 40 -96
52 -22 13 -69 40 -105 62 -35 22 -75 46 -88 54 -114 67 -452 300 -561 386 -64
50 -296 238 -300 242 -3 3 -23 21 -45 40 -156 132 -487 455 -641 626 -300 332
-600 728 -787 1040 -78 131 -132 196 -207 251 -151 111 -315 154 -575 149
-675 -13 -1272 -567 -1817 -1685 -86 -176 -238 -518 -238 -534 0 -7 -4 -16 -9
-22 -35 -38 -346 -897 -486 -1344 -139 -441 -385 -1299 -420 -1460 -2 -8 -14
-55 -28 -105 -27 -95 -227 -894 -271 -1080 -14 -60 -37 -158 -51 -217 -14 -60
-36 -154 -49 -210 -23 -94 -73 -312 -81 -348 -55 -250 -101 -457 -120 -540
-13 -58 -42 -193 -65 -300 -22 -107 -45 -213 -50 -235 -6 -22 -17 -76 -26
-120 -9 -44 -17 -87 -19 -95 -19 -88 -75 -361 -78 -380 -3 -14 -8 -36 -11 -50
-3 -14 -8 -36 -10 -50 -2 -14 -30 -153 -61 -310 -31 -157 -59 -296 -61 -310
-3 -14 -22 -115 -44 -225 -37 -191 -58 -304 -101 -535 -10 -58 -24 -127 -29
-155 -5 -27 -16 -88 -24 -135 -15 -84 -53 -291 -81 -445 -8 -44 -17 -96 -20
-115 -3 -19 -14 -84 -25 -145 -10 -60 -21 -123 -24 -140 -8 -47 -25 -148 -30
-171 -2 -12 -7 -39 -10 -60 -4 -22 -10 -61 -16 -89 -5 -27 -12 -66 -14 -85 -3
-19 -8 -46 -11 -60 -2 -13 -7 -42 -10 -65 -3 -22 -11 -67 -17 -100 -6 -33 -12
-69 -13 -80 -2 -11 -8 -47 -13 -80 -6 -33 -13 -76 -16 -95 -4 -29 -19 -119
-51 -310 -2 -14 -7 -43 -10 -65 -3 -22 -10 -62 -15 -90 -5 -27 -12 -72 -15
-100 -4 -27 -8 -57 -10 -65 -2 -8 -7 -35 -10 -60 -3 -25 -10 -67 -15 -95 -5
-27 -12 -70 -15 -95 -7 -53 -14 -95 -20 -130 -2 -14 -7 -43 -10 -65 -3 -23 -7
-50 -9 -61 -2 -12 -8 -45 -11 -75 -10 -69 -12 -85 -20 -134 -4 -22 -135 -425
-291 -895 -408 -1229 -402 -1210 -413 -1270 -15 -83 -6 -243 18 -327 82 -286
367 -618 746 -870 361 -241 803 -440 1315 -594 113 -34 256 -75 295 -83 6 -2
28 -8 50 -14 22 -6 51 -13 65 -16 14 -3 61 -14 105 -25 83 -20 385 -82 490
-101 33 -5 71 -12 85 -15 14 -3 57 -10 95 -16 39 -6 79 -12 90 -14 11 -2 67
-11 125 -19 58 -8 123 -18 145 -22 22 -3 54 -7 70 -9 58 -5 150 -16 171 -20
11 -2 54 -7 95 -11 41 -3 77 -8 80 -9 3 -2 45 -7 95 -10 49 -4 100 -8 114 -10
14 -3 61 -7 105 -10 44 -3 96 -8 115 -10 19 -2 80 -7 135 -10 55 -3 118 -8
140 -10 36 -3 121 -8 370 -20 44 -2 161 -8 260 -12 234 -10 30865 -10 30970 0
44 4 107 12 140 17 33 5 83 12 110 16 28 3 59 8 70 10 10 2 37 6 60 9 84 12
446 88 580 121 569 143 1141 363 1553 598 35 20 66 36 68 36 2 0 27 15 57 33
29 17 61 37 72 44 355 213 729 522 980 808 39 44 73 82 76 85 28 25 250 333
285 395 6 11 33 56 59 100 159 267 326 687 390 985 13 61 36 178 41 205 2 17
9 55 14 85 5 30 12 80 16 110 3 30 8 66 9 80 26 200 26 993 0 1150 -2 14 -6
61 -10 105 -6 84 -12 137 -20 195 -3 19 -8 58 -11 85 -2 28 -7 61 -9 75 -2 14
-13 84 -25 155 -121 752 -386 1446 -773 2025 -66 100 -216 300 -272 365 -14
17 -47 55 -73 85 -146 169 -351 370 -532 520 -41 34 -86 72 -100 84 -117 99
-442 322 -645 442 -177 105 -192 113 -415 227 -325 165 -657 306 -995 423 -55
19 -107 38 -115 41 -8 3 -17 7 -20 8 -3 1 -84 27 -180 57 -96 31 -200 64 -230
73 -167 49 -224 66 -310 89 -52 13 -122 32 -155 41 -67 19 -89 24 -125 31 -14
3 -38 9 -55 14 -92 28 -767 172 -1040 221 -33 6 -80 15 -105 20 -25 5 -56 11
-70 13 -88 14 -110 18 -150 26 -25 5 -61 12 -80 14 -19 3 -45 8 -56 10 -12 2
-37 7 -55 10 -114 18 -227 37 -249 41 -13 2 -42 7 -65 10 -22 4 -121 20 -220
36 -99 16 -209 34 -245 40 -36 5 -200 32 -365 60 -165 27 -311 52 -325 54 -14
2 -63 10 -110 19 -47 9 -103 19 -125 22 -22 3 -44 7 -50 8 -89 19 -125 26
-148 30 -15 3 -35 7 -45 10 -9 3 -35 7 -57 11 -192 28 -512 124 -695 208 -36
16 -103 46 -150 67 -249 110 -587 279 -803 401 -38 22 -70 39 -72 39 -1 0 -47
25 -101 56 -55 31 -124 70 -154 87 -124 69 -466 270 -481 283 -8 8 -19 14 -22
14 -7 0 -270 160 -559 341 -157 98 -240 151 -358 228 -30 20 -63 41 -72 46
-12 7 -285 183 -325 209 -1 1 18 60 42 131 41 126 78 272 90 365 3 25 10 77
15 115 20 159 4 486 -35 670 -2 11 -7 34 -10 50 -3 17 -9 41 -14 55 -9 25 -32
105 -37 125 -9 39 -65 178 -110 270 -47 98 -166 301 -184 315 -4 3 -21 24 -37
48 -127 176 -376 400 -583 523 -208 124 -474 223 -684 255 -22 3 -43 7 -46 9
-36 22 -554 22 -591 0 -3 -2 -28 -7 -55 -11 -27 -3 -52 -8 -55 -10 -4 -2 -24
-6 -45 -10 -61 -10 -294 -89 -388 -133 -182 -84 -362 -204 -505 -336 -30 -27
-67 -62 -83 -77 l-28 -28 -93 68 c-50 37 -96 70 -102 75 -5 4 -39 29 -75 55
-36 26 -148 108 -249 182 -101 74 -205 151 -232 170 -26 19 -88 65 -138 101
l-89 65 48 75 c160 249 275 566 315 869 3 19 8 57 11 83 13 100 6 424 -10 504
-2 11 -8 43 -12 70 -6 45 -9 60 -19 108 -3 11 -7 29 -9 40 -13 59 -62 211 -93
290 -120 303 -301 567 -539 785 -321 296 -731 479 -1174 525 -64 6 -313 7
-350 1 -14 -3 -52 -7 -85 -11 -260 -27 -577 -142 -815 -294 -134 -85 -257
-188 -416 -348 -94 -95 -174 -173 -178 -173 -3 0 -65 46 -138 102 -73 57 -137
106 -143 110 -5 4 -26 20 -45 36 -19 15 -168 131 -330 257 -162 126 -329 256
-371 289 -43 34 -123 97 -180 141 -56 44 -171 134 -255 200 -83 66 -196 155
-250 197 -116 90 -122 95 -235 185 -47 37 -103 82 -124 98 -21 17 -107 85
-191 152 -84 67 -196 152 -250 188 -196 132 -457 237 -647 261 -23 3 -49 8
-57 11 -17 6 -345 14 -351 9z m265 -1440 c44 -20 121 -78 313 -234 74 -59 582
-459 883 -695 168 -131 321 -251 340 -267 19 -15 112 -87 205 -160 94 -73 184
-143 200 -155 17 -13 107 -83 200 -156 94 -72 174 -135 178 -139 5 -4 -43 -61
-106 -126 -186 -194 -207 -216 -267 -289 -254 -312 -426 -727 -466 -1125 -17
-165 -9 -437 17 -585 5 -33 11 -69 13 -80 5 -34 56 -229 65 -250 5 -11 19 -49
32 -85 96 -273 274 -546 499 -770 87 -86 288 -250 306 -250 4 0 22 -12 41 -26
87 -66 385 -199 525 -235 87 -21 224 -50 263 -54 131 -15 171 -18 270 -18 305
-1 606 69 880 203 102 50 234 127 270 157 6 5 37 29 70 53 114 84 215 184 857
852 l83 87 100 -75 c55 -41 109 -81 120 -89 11 -7 92 -67 180 -132 162 -120
255 -188 440 -323 57 -41 105 -78 107 -82 2 -6 -142 -159 -422 -448 -120 -124
-208 -232 -287 -355 -171 -262 -298 -617 -328 -910 -3 -33 -8 -75 -11 -94 -6
-48 -6 -275 0 -341 13 -120 18 -158 31 -232 77 -420 282 -812 581 -1114 328
-330 700 -516 1174 -589 81 -12 448 -14 495 -3 11 3 42 9 68 12 27 4 59 9 70
12 12 2 31 6 42 8 208 41 470 150 670 281 182 119 267 198 765 715 338 350
364 377 496 512 l124 127 157 -104 c205 -135 422 -274 713 -457 129 -81 249
-156 265 -167 26 -17 298 -183 377 -230 15 -9 64 -38 110 -66 46 -27 88 -52
93 -54 6 -2 21 -12 35 -21 14 -9 45 -28 70 -42 25 -14 86 -49 135 -78 50 -29
113 -65 140 -80 28 -15 66 -36 85 -47 131 -73 266 -148 329 -181 41 -21 76
-43 78 -49 4 -12 -286 -308 -407 -414 -235 -207 -476 -384 -720 -528 -58 -34
-112 -66 -120 -71 -41 -26 -341 -175 -422 -211 -325 -142 -786 -282 -1073
-325 -22 -3 -42 -7 -45 -9 -3 -1 -30 -6 -61 -9 -31 -4 -65 -8 -75 -10 -60 -12
-151 -22 -284 -32 -188 -15 -747 -8 -846 10 -11 2 -46 7 -79 10 -84 10 -313
46 -355 56 -19 5 -50 12 -68 15 -81 14 -353 88 -490 134 -395 132 -794 326
-1147 560 -55 36 -101 69 -103 73 -2 5 -8 8 -13 8 -5 0 -58 33 -117 73 -59 41
-260 176 -447 302 -187 126 -407 274 -490 330 -82 56 -276 186 -430 290 -154
104 -381 257 -505 340 -445 300 -818 551 -970 653 -85 57 -164 110 -175 118
-11 8 -42 29 -70 47 -27 18 -162 109 -300 202 -137 92 -344 232 -460 310 -261
176 -644 434 -1010 680 -154 104 -354 239 -445 300 -91 61 -275 185 -410 276
-135 90 -246 167 -248 171 -2 5 -8 8 -14 8 -6 0 -25 11 -42 23 -28 22 -300
205 -901 609 -121 81 -225 151 -230 155 -6 5 -77 53 -158 107 l-147 99 17 26
c159 241 246 473 289 771 21 146 7 450 -26 580 -5 19 -11 47 -14 61 -9 54 -79
247 -118 329 -97 201 -187 321 -443 586 -271 281 -284 295 -311 344 -70 124
-63 306 15 424 20 29 138 154 736 771 128 132 261 269 295 305 448 467 474
491 555 516 56 17 149 8 209 -20z m5096 -1389 c230 -57 400 -199 492 -412 65
-149 74 -350 24 -498 -48 -143 -90 -207 -227 -348 -90 -92 -485 -500 -591
-610 -34 -36 -164 -171 -288 -299 -411 -426 -534 -547 -598 -588 -63 -40 -186
-97 -232 -106 -14 -2 -48 -9 -77 -15 -60 -12 -197 -8 -264 8 -246 57 -462 310
-494 578 -8 64 -8 165 0 203 3 14 7 37 10 53 25 134 98 255 255 417 301 311
514 531 585 605 44 45 177 183 295 306 530 551 610 625 725 666 17 6 39 14 50
19 28 10 45 14 85 21 19 3 37 7 38 8 5 4 192 -3 212 -8z m-17348 -1325 c131
-189 341 -451 563 -701 219 -247 588 -607 865 -845 150 -128 141 -121 277
-229 591 -470 1285 -879 1918 -1131 39 -16 79 -32 90 -37 217 -93 743 -255
1020 -315 39 -9 77 -17 85 -19 44 -10 173 -35 230 -45 36 -6 76 -13 90 -16 14
-2 41 -7 60 -10 19 -3 46 -7 60 -10 74 -12 316 -41 415 -49 39 -3 81 -8 95
-10 29 -5 194 -14 354 -20 60 -2 112 -7 116 -12 4 -4 25 -39 45 -78 21 -38 41
-74 45 -80 7 -9 34 -60 197 -370 71 -136 301 -597 367 -737 36 -78 101 -219
227 -495 18 -41 165 -383 234 -548 210 -498 488 -1275 694 -1940 72 -232 226
-777 256 -905 2 -8 29 -114 59 -235 96 -387 143 -596 221 -980 9 -44 19 -89
21 -100 2 -11 13 -72 25 -135 11 -63 22 -117 24 -120 1 -3 6 -27 9 -53 4 -26
11 -71 17 -100 5 -29 12 -65 14 -82 3 -16 7 -41 10 -55 3 -14 7 -41 10 -60 3
-19 10 -60 15 -90 5 -30 12 -73 15 -95 3 -22 10 -67 15 -100 5 -33 12 -78 15
-100 4 -22 8 -51 11 -65 2 -14 6 -45 9 -70 3 -25 8 -56 10 -70 9 -50 24 -161
30 -220 l5 -45 -1273 0 -1272 0 -1 1115 c-1 1006 -4 1219 -19 1300 -2 14 -9
52 -14 85 -16 93 -20 114 -42 195 -11 41 -24 83 -29 92 -6 10 -10 23 -10 30 0
36 -135 329 -202 437 -244 393 -617 703 -1029 855 -93 34 -206 69 -264 80 -16
4 -41 9 -55 11 -14 3 -41 8 -60 11 -19 3 -46 7 -59 9 -92 15 -541 18 -3526 18
-1837 0 -3343 1 -3346 3 -4 2 1 41 11 86 11 46 21 94 24 108 2 14 9 45 15 70
5 25 13 61 16 80 3 19 8 42 10 50 2 8 6 26 9 40 12 62 18 91 37 179 12 51 22
101 24 110 2 9 9 39 15 66 6 28 14 61 16 75 3 14 7 33 10 42 3 10 7 30 10 44
5 25 82 372 139 624 14 63 35 149 45 190 10 41 21 86 24 100 2 14 21 93 41
175 20 83 38 157 40 165 2 8 25 98 50 200 26 102 49 192 51 200 2 8 15 60 29
115 15 55 29 111 31 124 3 14 7 28 10 33 3 4 7 16 9 25 2 10 11 46 20 80 9 35
18 71 20 80 4 19 90 328 169 608 25 89 49 172 54 185 5 14 10 27 10 30 0 9 40
144 134 450 141 464 344 1067 445 1325 19 50 36 95 38 100 1 6 5 19 10 30 23
60 99 254 110 280 7 17 45 109 85 205 69 167 256 558 318 666 79 136 190 294
206 294 6 -1 41 -45 78 -98z m21453 -2125 c383 -92 606 -460 521 -862 -9 -45
-40 -123 -68 -175 -49 -89 -53 -93 -413 -465 -121 -125 -251 -259 -289 -299
-752 -780 -862 -891 -940 -943 -39 -26 -73 -48 -76 -48 -3 -1 -15 -6 -28 -13
-78 -44 -217 -76 -327 -76 -205 0 -382 93 -512 268 -55 75 -108 190 -120 261
-2 17 -8 46 -12 65 -13 58 -4 200 18 282 39 149 99 240 278 424 134 138 503
519 618 639 726 756 805 833 895 878 41 21 104 46 140 56 82 23 234 27 315 8z
m-11679 -682 c18 -14 37 -25 42 -25 6 0 12 -4 14 -8 2 -5 73 -55 158 -112 85
-57 243 -162 350 -235 258 -174 832 -560 895 -602 28 -18 55 -37 60 -41 6 -4
71 -48 145 -98 123 -82 264 -177 875 -589 208 -140 436 -294 1040 -700 171
-115 338 -228 373 -252 35 -24 67 -43 72 -43 4 0 10 -3 12 -7 2 -5 71 -53 153
-109 220 -148 592 -399 815 -549 107 -72 319 -214 470 -316 151 -101 280 -188
285 -192 6 -4 89 -61 185 -125 96 -65 328 -221 515 -347 187 -125 457 -307
600 -403 143 -97 368 -248 500 -337 132 -89 258 -174 280 -188 22 -15 45 -30
50 -34 49 -39 483 -321 605 -394 240 -143 579 -312 825 -409 11 -4 38 -16 59
-25 90 -40 520 -182 636 -211 8 -2 35 -8 60 -15 51 -12 72 -17 98 -23 9 -2 37
-9 62 -16 50 -13 50 -13 170 -36 47 -9 92 -17 101 -19 57 -11 273 -45 319 -49
30 -4 66 -8 80 -10 14 -3 59 -7 100 -11 41 -3 93 -8 115 -10 236 -24 775 -19
1025 10 19 2 62 7 95 10 33 3 71 8 85 10 14 2 52 6 84 10 32 3 62 7 65 9 3 2
29 7 56 10 28 4 97 16 155 27 58 11 116 23 130 25 62 12 204 45 210 49 3 2 18
6 32 9 52 9 319 84 368 103 8 4 17 7 20 8 31 8 248 83 275 95 11 4 77 31 146
59 375 149 724 335 1088 577 57 38 120 80 140 93 87 58 341 256 436 340 23 20
72 63 110 96 136 118 346 325 466 460 29 33 58 65 63 71 34 35 81 91 156 184
47 58 87 107 90 110 3 3 18 22 34 43 22 30 33 37 50 33 51 -15 295 -75 331
-82 22 -4 45 -8 50 -9 53 -12 217 -46 245 -50 19 -3 42 -8 50 -10 14 -4 211
-39 285 -51 17 -3 66 -12 110 -20 45 -8 94 -16 110 -18 17 -3 46 -7 65 -11 19
-3 46 -8 60 -10 22 -4 296 -49 360 -60 14 -2 70 -11 125 -20 137 -21 150 -23
315 -50 80 -14 163 -27 185 -30 22 -3 64 -10 93 -16 29 -6 65 -12 80 -14 15
-2 43 -6 62 -10 121 -20 149 -25 180 -30 19 -3 53 -10 75 -15 22 -5 58 -11 80
-14 22 -3 51 -8 65 -11 14 -2 36 -7 50 -9 313 -58 910 -186 1070 -230 8 -2 69
-18 135 -35 66 -17 183 -49 260 -71 77 -23 147 -43 155 -45 8 -2 80 -25 160
-51 80 -26 150 -49 155 -50 33 -7 413 -151 503 -190 49 -21 91 -40 152 -65
135 -57 460 -225 620 -321 94 -57 350 -232 414 -283 269 -216 467 -415 662
-665 52 -67 204 -295 204 -306 0 -3 9 -18 20 -33 19 -28 134 -254 165 -326 9
-22 24 -56 32 -75 97 -221 227 -696 258 -945 4 -27 12 -86 19 -130 6 -44 12
-87 11 -95 0 -13 -1342 -15 -12012 -15 -6607 0 -12013 2 -12014 5 0 3 -2 12
-4 21 -1 8 -6 42 -9 75 -4 32 -9 73 -11 89 -3 17 -9 64 -14 105 -6 41 -12 91
-15 110 -3 19 -12 86 -21 148 -9 62 -18 123 -21 135 -2 12 -6 42 -9 67 -3 25
-14 97 -25 160 -11 63 -22 133 -25 155 -4 22 -15 90 -26 150 -11 61 -22 124
-25 140 -2 17 -6 41 -9 55 -7 39 -12 63 -46 240 -17 91 -32 172 -34 180 -10
47 -67 318 -71 335 -3 11 -9 41 -14 66 -11 56 -57 261 -70 309 -5 19 -12 49
-15 65 -3 17 -23 102 -45 190 -22 88 -42 169 -45 180 -7 28 -51 200 -69 265
-69 257 -97 355 -156 560 -64 218 -173 572 -204 665 -8 22 -33 99 -56 170 -23
72 -45 139 -50 150 -5 11 -23 63 -41 115 -18 52 -45 131 -61 175 -16 44 -30
85 -32 90 -2 6 -8 23 -14 38 -7 16 -12 32 -12 37 0 5 -6 24 -14 42 -8 18 -49
125 -92 238 -172 460 -445 1116 -602 1450 -22 47 -57 123 -79 170 -123 264
-160 341 -294 607 -159 317 -154 297 -82 309 24 4 157 28 219 40 32 6 217 45
234 49 8 2 56 13 105 24 74 17 210 53 585 155 106 29 541 176 689 232 47 18
90 33 95 34 5 0 24 -11 42 -25z m-5398 -5760 c131 -27 236 -83 330 -174 70
-68 102 -110 140 -187 38 -74 59 -138 71 -211 6 -34 10 -509 10 -1148 l1
-1090 -4027 0 c-3112 0 -4027 3 -4030 12 -3 7 5 67 16 135 17 100 60 369 85
523 11 72 36 222 41 245 6 29 25 143 30 180 2 14 10 63 19 110 9 47 18 102 22
124 3 21 7 46 9 55 1 9 6 36 10 61 4 25 9 54 11 65 9 45 46 255 60 335 7 47
16 96 19 110 6 32 23 125 30 170 3 19 12 69 20 110 8 41 17 93 21 115 3 22 9
56 14 75 5 19 11 53 15 75 3 22 12 74 20 115 15 74 19 100 31 173 l7 37 3478
0 c3013 0 3487 -2 3547 -15z m29789 -4225 l32 0 -25 -77 c-14 -43 -29 -87 -34
-98 -5 -11 -24 -56 -41 -100 -36 -87 -91 -196 -148 -290 -32 -54 -136 -203
-150 -215 -3 -3 -24 -27 -46 -55 -88 -110 -268 -279 -422 -395 -207 -157 -452
-300 -728 -425 -82 -38 -318 -134 -345 -141 -8 -2 -71 -23 -140 -47 -69 -24
-127 -44 -130 -44 -3 -1 -32 -9 -65 -19 -33 -10 -65 -19 -70 -20 -6 -1 -45
-11 -87 -22 -41 -12 -90 -24 -109 -27 -18 -3 -35 -8 -39 -10 -3 -2 -17 -6 -31
-9 -13 -3 -89 -18 -169 -35 -80 -16 -158 -32 -175 -34 -16 -3 -57 -10 -90 -15
-33 -6 -85 -14 -115 -18 -30 -3 -82 -10 -115 -14 -71 -9 -30596 -6 -30765 3
-63 3 -178 9 -255 12 -77 3 -165 7 -195 10 -30 2 -107 6 -170 10 -63 3 -128 8
-145 10 -16 2 -76 7 -133 10 -57 4 -111 8 -120 10 -9 1 -55 6 -102 9 -47 4
-98 9 -115 11 -16 2 -61 7 -98 10 -37 4 -76 8 -85 9 -9 2 -44 7 -77 10 -33 4
-71 9 -85 11 -14 2 -47 6 -75 10 -27 3 -90 12 -140 20 -123 19 -159 24 -202
30 -21 3 -58 10 -83 15 -25 5 -94 18 -155 30 -60 11 -119 22 -130 24 -11 3
-81 18 -155 35 -74 18 -146 34 -160 37 -36 7 -100 24 -135 35 -36 11 -256 77
-305 91 -35 10 -205 71 -247 89 -34 13 -57 24 -173 74 -173 75 -425 218 -460
260 -9 10 24 121 150 502 89 268 167 502 173 518 7 17 12 32 13 35 0 3 13 44
28 92 l28 87 52 3 c38 2 37406 1 37563 -2z"/>
</g>
</svg>
